<?xml version="1.0" encoding="UTF-8"?>
<!DOCTYPE svg PUBLIC "-//W3C//DTD SVG 1.1//EN" "http://www.w3.org/Graphics/SVG/1.1/DTD/svg11.dtd">
<svg version="1.1" xmlns="http://www.w3.org/2000/svg" xmlns:xlink="http://www.w3.org/1999/xlink" x="0" y="0" width="20" height="20" viewBox="0, 0, 20, 20">
  <g id="Layer_1">
    <g>
      <g>
        <path d="M18.5,10 C18.5,14.694 14.694,18.5 10,18.5 C5.306,18.5 1.5,14.694 1.5,10 C1.5,5.306 5.306,1.5 10,1.5 C14.694,1.5 18.5,5.306 18.5,10 z" fill="#FFFFFF"/>
        <path d="M18.5,10 C18.5,14.694 14.694,18.5 10,18.5 C5.306,18.5 1.5,14.694 1.5,10 C1.5,5.306 5.306,1.5 10,1.5 C14.694,1.5 18.5,5.306 18.5,10 z" fill-opacity="0" stroke="#2CA02C" stroke-width="2.3"/>
      </g>
      <g>
        <path d="M5.7,11.688 L9,15.087 L15.3,8.887" fill="#FFFFFF"/>
        <path d="M5.7,11.688 L9,15.087 L15.3,8.887" fill-opacity="0" stroke="#2CA02C" stroke-width="2.3"/>
      </g>
      <g>
        <path d="M5.7,7.475 L9,10.875 L15.3,4.675" fill="#FFFFFF"/>
        <path d="M5.7,7.475 L9,10.875 L15.3,4.675" fill-opacity="0" stroke="#2CA02C" stroke-width="2.3"/>
      </g>
    </g>
  </g>
</svg>
