<?xml version="1.0" encoding="UTF-8"?>
<!DOCTYPE svg PUBLIC "-//W3C//DTD SVG 1.1//EN" "http://www.w3.org/Graphics/SVG/1.1/DTD/svg11.dtd">
<svg version="1.1" xmlns="http://www.w3.org/2000/svg" xmlns:xlink="http://www.w3.org/1999/xlink" x="0" y="0" width="1000" height="1000" viewBox="0, 0, 1000, 1000">
  <g id="Layer_1">
    <path d="M183.364,527.868 C183.364,431.4 232.155,347.44 305.375,292.745 C322.647,279.846 357.259,274.107 371.171,290.595 C379.792,300.798 382.873,313.07 383.224,324.718 C383.896,346.274 361.558,372.519 346.186,387.631 C309.457,423.771 286.314,472.768 286.314,528.156 C286.314,644.037 380.247,731.882 496.119,731.882 C612.041,731.882 705.996,644.037 705.996,528.156 C705.996,469.101 683.439,417.249 645.988,380.57 C630.597,365.477 609.693,338.808 613.055,317.494 C614.986,305.192 620.311,293.016 631.931,284.238 C649.139,271.245 683.606,280.527 700.629,293.77 C770.893,348.454 816.625,432.021 816.625,527.868 C816.625,697.688 666.032,829.247 496.159,829.247 C326.359,829.258 183.364,697.677 183.364,527.868" fill="#E10000"/>
    <path d="M502.279,559.643 C481.089,559.643 451.649,534.803 451.649,513.633 L451.649,218.339 C451.649,215.373 452.143,170.745 500.769,170.745 C521.961,170.745 549.863,181.877 549.863,218.339 L549.863,513.633 C549.872,534.803 523.564,559.643 502.279,559.643" fill="#E10000"/>
  </g>
</svg>
