<?xml version="1.0" encoding="UTF-8"?>
<!DOCTYPE svg PUBLIC "-//W3C//DTD SVG 1.1//EN" "http://www.w3.org/Graphics/SVG/1.1/DTD/svg11.dtd">
<svg version="1.1" xmlns="http://www.w3.org/2000/svg" xmlns:xlink="http://www.w3.org/1999/xlink" x="0" y="0" width="295.928" height="295.928" viewBox="0, 0, 295.928, 295.928">
  <g id="Layer_1">
    <g>
      <path d="M193.686,68.762 C189.779,72.664 189.777,78.996 193.681,82.903 C219.95,109.19 219.933,151.977 193.644,178.282 C189.74,182.19 189.742,188.52 193.648,192.425 C195.601,194.376 198.159,195.353 200.717,195.353 C203.278,195.353 205.837,194.374 207.79,192.421 C241.869,158.321 241.886,102.851 207.827,68.767 C203.925,64.86 197.592,64.856 193.686,68.762 z" fill="#FFFFFF"/>
      <path d="M156.301,97.448 C152.394,101.35 152.392,107.682 156.296,111.589 C166.768,122.069 166.767,139.122 156.294,149.603 C152.39,153.509 152.392,159.841 156.299,163.746 C158.251,165.697 160.81,166.672 163.367,166.672 C165.928,166.672 168.488,165.696 170.44,163.74 C188.703,145.465 188.704,115.728 170.442,97.453 C166.54,93.544 160.207,93.542 156.301,97.448 z" fill="#FFFFFF"/>
      <path d="M252.097,24.471 C248.193,20.563 241.862,20.561 237.955,24.465 C234.048,28.369 234.046,34.701 237.95,38.608 C288.621,89.311 288.599,171.833 237.898,222.559 C233.994,226.465 233.996,232.797 237.902,236.702 C239.855,238.653 242.413,239.63 244.971,239.63 C247.531,239.63 250.091,238.651 252.044,236.698 C310.536,178.175 310.559,82.97 252.097,24.471 z" fill="#FFFFFF"/>
      <path d="M72.751,195.087 C98.461,193.316 118.842,171.823 118.842,145.64 C118.842,118.302 96.625,96.062 69.318,96.062 C42.009,96.062 19.792,118.302 19.792,145.64 C19.792,171.822 40.173,193.314 65.884,195.087 C46.634,195.827 29.681,202.782 17.865,214.876 C5.726,227.3 -0.443,244.501 0.025,264.622 C0.151,270.052 4.589,274.39 10.022,274.39 L128.604,274.39 C134.037,274.39 138.475,270.052 138.601,264.62 C139.068,244.497 132.898,227.294 120.758,214.87 C108.945,202.78 91.997,195.827 72.751,195.087 z" fill="#FFFFFF"/>
    </g>
  </g>
</svg>
